<?xml version="1.0" encoding="UTF-8"?>
<svg id="_レイヤー_1" data-name=" レイヤー 1" xmlns="http://www.w3.org/2000/svg" version="1.1" viewBox="0 0 300 100">
  <defs>
    <style>
      .cls-1 {
        isolation: isolate;
      }

      .cls-2 {
        fill: #fff;
        stroke-width: 0px;
      }
    </style>
  </defs>
  <g>
    <g>
      <polygon class="cls-2" points="28.3 40.8 21.2 49.3 32.2 47.7 39.8 38.5 28.3 40.8"/>
      <polygon class="cls-2" points="24.1 60.9 24.1 60.9 20.4 50.9 16.8 60.9 20.4 72.2 24.1 60.9"/>
      <polygon class="cls-2" points="12.6 40.8 1 38.5 8.6 47.6 19.7 49.3 12.6 40.8"/>
      <polygon class="cls-2" points="19.8 42.9 17.2 39.7 20.4 34.2 23.6 39.7 21 42.9 21 47.6 27.6 39.7 20.4 27.2 13.2 39.7 19.8 47.6 19.8 42.9"/>
      <polygon class="cls-2" points="26.9 52.7 30.8 52.1 33.9 57.5 27.4 57.5 26 53.6 21.8 51.2 25.5 60.9 39.9 60.9 32.9 48.8 22.6 50.3 26.9 52.7"/>
    </g>
    <polygon class="cls-2" points="14.9 53.6 13.5 57.5 7 57.5 10.1 52.1 14.1 52.7 18.3 50.3 8 48.7 .9 60.9 15.4 60.9 19 51.2 14.9 53.6"/>
  </g>
  <g class="cls-1">
    <g class="cls-1">
      <path class="cls-2" d="M45,63.4l12.4-12.4h23s2.5-2.5,2.5-2.5h-26.2s-6.7,6.8-6.7,6.8v-9.2s4.9-5,4.9-5h36.4s-4.1,4.1-4.1,4.1v8.2s-5,5-5,5h-23s-5,5-5,5h-9.2Z"/>
      <path class="cls-2" d="M110.2,60.8l-4.9-4.9-2.5,2.5h-14.2s7.4-7.4,7.4-7.4h23s2.5-2.5,2.5-2.5h-26.2s-6.7,6.8-6.7,6.8v-9.2s4.9-5,4.9-5h36.7s-4.4,4.4-4.4,4.4v7.9s-5,5-5,5h-3.9s2.4,2.4,2.4,2.4h-9.2Z"/>
      <path class="cls-2" d="M127.3,58.4v-12s5.4-5.4,5.4-5.4h9.2s-4.4,4.4-4.4,4.4v12.9s-10.1,0-10.1,0Z"/>
      <path class="cls-2" d="M139,58.3l7.4-7.4h23s2.5-2.5,2.5-2.5h-26.2s-6.7,6.8-6.7,6.8v-9.2s4.9-5,4.9-5h27.5s5-5,5-5h9.2s-9.4,9.4-9.4,9.4v7.9s-5,5-5,5h-32.2Z"/>
      <path class="cls-2" d="M208.1,48.4h-23.7s-6.7,6.8-6.7,6.8v-9.2s4.9-5,4.9-5h36.7s-4.4,4.4-4.4,4.4v9.7s-6.7-6.7-6.7-6.7ZM198.8,58.3l-2.5-2.5-2.5,2.5h-16.1s7.4-7.4,7.4-7.4h22.3s7.5,7.4,7.5,7.4h-16.1Z"/>
      <path class="cls-2" d="M253.6,53.3l-5,5h-9.2s-2.5,2.5-2.5,2.5h-9.2s4.9-5,4.9-5h9.2s2.5-2.5,2.5-2.5h-12.4s-5,5-5,5h-10.6s0-12.4,0-12.4l4.9-5h36.7s-7.4,7.4-7.4,7.4h-27.4s-4.3,4.3-4.3,4.3v3.2s5-5,5-5h29.7s0,2.4,0,2.4Z"/>
      <path class="cls-2" d="M277.1,60.7l-4.9-4.9h-5.4s-2.5,2.5-2.5,2.5h-9.2s0-12.4,0-12.4l4.9-5h9.2s-11.7,11.7-11.7,11.7v3.2s5-5,5-5h23s2.5-2.5,2.5-2.5h-7.9s9.9-9.9,9.9-9.9h9.2s-6.9,6.9-6.9,6.9v7.9s-4.9,4.9-4.9,4.9h-3.5s2.5,2.5,2.5,2.5h-9.2Z"/>
    </g>
  </g>
</svg>