<?xml version="1.0" encoding="UTF-8"?><svg id="_レイヤー_1" data-name=" レイヤー 1" xmlns="http://www.w3.org/2000/svg" version="1.1" viewBox="0 0 2276.5 262.6"><defs><style> .cls-1 { fill: #e217ff; } .cls-1, .cls-2, .cls-3, .cls-4, .cls-5 { stroke-width: 0px; } .cls-2 { fill: #002fff; } .cls-3 { fill: #1bf2dd; } .cls-4 { fill: #d53fff; } .cls-5 { fill: #fff; } </style></defs><g><g><g><polygon class="cls-1" points="37.9 253.3 142.3 148.9 344.1 148.9 370.4 122.7 134.3 122.7 78.3 178.6 78.3 104.1 120.5 61.9 433.4 61.9 400.2 95.2 400.2 167.5 357.9 209.7 156.1 209.7 112.5 253.3 37.9 253.3"/><polygon class="cls-1" points="37.9 253.3 142.3 148.9 344.1 148.9 370.4 122.7 134.3 122.7 78.3 178.6 78.3 104.1 120.5 61.9 433.4 61.9 400.2 95.2 400.2 167.5 357.9 209.7 156.1 209.7 112.5 253.3 37.9 253.3"/></g><g><polygon class="cls-1" points="603.6 230.9 559.7 187 537.1 209.7 419 209.7 479.7 148.9 681.6 148.9 707.8 122.7 471.7 122.7 415.8 178.6 415.8 104.1 457.9 61.9 773.5 61.9 737.6 97.8 737.6 167.5 695.4 209.7 657 209.7 678.2 230.9 603.6 230.9"/><polygon class="cls-1" points="603.6 230.9 559.7 187 537.1 209.7 419 209.7 479.7 148.9 681.6 148.9 707.8 122.7 471.7 122.7 415.8 178.6 415.8 104.1 457.9 61.9 773.5 61.9 737.6 97.8 737.6 167.5 695.4 209.7 657 209.7 678.2 230.9 603.6 230.9"/></g><g><polygon class="cls-1" points="753.3 209.7 753.3 107.8 799.2 61.9 873.8 61.9 837.9 97.8 837.9 209.7 753.3 209.7"/><polygon class="cls-1" points="753.3 209.7 753.3 107.8 799.2 61.9 873.8 61.9 837.9 97.8 837.9 209.7 753.3 209.7"/></g><g><polygon class="cls-1" points="856.7 209.7 917.5 148.9 1119.4 148.9 1145.6 122.7 909.5 122.7 853.6 178.7 853.6 104.1 895.7 61.9 1136.7 61.9 1180.2 18.4 1254.8 18.4 1175.4 97.8 1175.4 167.5 1133.1 209.7 856.7 209.7"/><polygon class="cls-1" points="856.7 209.7 917.5 148.9 1119.4 148.9 1145.6 122.7 909.5 122.7 853.6 178.7 853.6 104.1 895.7 61.9 1136.7 61.9 1180.2 18.4 1254.8 18.4 1175.4 97.8 1175.4 167.5 1133.1 209.7 856.7 209.7"/></g><g><path class="cls-1" d="M1374.6,209.7l-22.7-22.7-22.7,22.7h-135l60.8-60.8h193.9l60.9,60.8h-135.2ZM1456.8,122.7h-209.9l-55.9,56v-74.7l42.1-42.1h315.5l-35.8,35.8v81l-56-56h0Z"/><path class="cls-1" d="M1374.6,209.7l-22.7-22.7-22.7,22.7h-135l60.8-60.8h193.9l60.9,60.8h-135.2ZM1456.8,122.7h-209.9l-55.9,56v-74.7l42.1-42.1h315.5l-35.8,35.8v81l-56-56h0Z"/></g><g><polygon class="cls-1" points="1630.7 231.5 1669.7 192.4 1750.7 192.4 1777 166.2 1661.8 166.2 1618.3 209.7 1528.4 209.7 1528.4 104.1 1570.5 61.9 1886 61.9 1825.3 122.7 1584.3 122.7 1545.6 161.4 1545.6 195.5 1592.3 148.9 1850.2 148.9 1850.2 167.5 1808 209.7 1727.1 209.7 1705.4 231.5 1630.7 231.5"/><polygon class="cls-1" points="1630.7 231.5 1669.7 192.4 1750.7 192.4 1777 166.2 1661.8 166.2 1618.3 209.7 1528.4 209.7 1528.4 104.1 1570.5 61.9 1886 61.9 1825.3 122.7 1584.3 122.7 1545.6 161.4 1545.6 195.5 1592.3 148.9 1850.2 148.9 1850.2 167.5 1808 209.7 1727.1 209.7 1705.4 231.5 1630.7 231.5"/></g><g><polygon class="cls-1" points="2057.9 231.2 2014.8 187.9 1965.3 187.9 1943.6 209.7 1865.8 209.7 1865.8 104.1 1908 61.9 1982.5 61.9 1883 161.4 1883 195.5 1929.8 148.9 2131.6 148.9 2157.9 122.7 2088.2 122.7 2170.7 40.1 2245.3 40.1 2187.7 97.8 2187.7 167.5 2145.9 209.4 2110.8 209.4 2132.5 231.2 2057.9 231.2"/><polygon class="cls-1" points="2057.9 231.2 2014.8 187.9 1965.3 187.9 1943.6 209.7 1865.8 209.7 1865.8 104.1 1908 61.9 1982.5 61.9 1883 161.4 1883 195.5 1929.8 148.9 2131.6 148.9 2157.9 122.7 2088.2 122.7 2170.7 40.1 2245.3 40.1 2187.7 97.8 2187.7 167.5 2145.9 209.4 2110.8 209.4 2132.5 231.2 2057.9 231.2"/></g></g><g><g><polygon class="cls-3" points="20.2 247.6 124.6 143.2 326.4 143.2 352.7 117 116.6 117 60.6 172.9 60.6 98.4 102.8 56.2 415.7 56.2 382.5 89.5 382.5 161.7 340.2 204 138.4 204 94.8 247.6 20.2 247.6"/><polygon class="cls-3" points="20.2 247.6 124.6 143.2 326.4 143.2 352.7 117 116.6 117 60.6 172.9 60.6 98.4 102.8 56.2 415.7 56.2 382.5 89.5 382.5 161.7 340.2 204 138.4 204 94.8 247.6 20.2 247.6"/></g><g><polygon class="cls-3" points="585.9 225.2 542 181.3 519.4 204 401.3 204 462 143.2 663.9 143.2 690.1 117 454 117 398.1 172.9 398.1 98.4 440.2 56.2 755.8 56.2 719.9 92 719.9 161.7 677.7 204 639.3 204 660.5 225.2 585.9 225.2"/><polygon class="cls-3" points="585.9 225.2 542 181.3 519.4 204 401.3 204 462 143.2 663.9 143.2 690.1 117 454 117 398.1 172.9 398.1 98.4 440.2 56.2 755.8 56.2 719.9 92 719.9 161.7 677.7 204 639.3 204 660.5 225.2 585.9 225.2"/></g><g><polygon class="cls-3" points="735.6 204 735.6 102 781.5 56.2 856.1 56.2 820.2 92 820.2 204 735.6 204"/><polygon class="cls-3" points="735.6 204 735.6 102 781.5 56.2 856.1 56.2 820.2 92 820.2 204 735.6 204"/></g><g><polygon class="cls-3" points="839 204 899.8 143.2 1101.7 143.2 1127.9 117 891.8 117 835.9 173 835.9 98.4 878 56.2 1119 56.2 1162.5 12.6 1237.1 12.6 1157.7 92 1157.7 161.7 1115.4 204 839 204"/><polygon class="cls-3" points="839 204 899.8 143.2 1101.7 143.2 1127.9 117 891.8 117 835.9 173 835.9 98.4 878 56.2 1119 56.2 1162.5 12.6 1237.1 12.6 1157.7 92 1157.7 161.7 1115.4 204 839 204"/></g><g><path class="cls-3" d="M1356.9,204l-22.7-22.7-22.7,22.7h-135l60.8-60.8h193.9l60.9,60.8h-135.2ZM1439.1,117h-209.9l-55.9,56v-74.7l42.1-42.1h315.5l-35.8,35.8v81l-56-56h0Z"/><path class="cls-3" d="M1356.9,204l-22.7-22.7-22.7,22.7h-135l60.8-60.8h193.9l60.9,60.8h-135.2ZM1439.1,117h-209.9l-55.9,56v-74.7l42.1-42.1h315.5l-35.8,35.8v81l-56-56h0Z"/></g><g><polygon class="cls-3" points="1613 225.8 1652 186.7 1733 186.7 1759.3 160.4 1644.1 160.4 1600.6 204 1510.7 204 1510.7 98.4 1552.8 56.2 1868.3 56.2 1807.6 117 1566.6 117 1527.9 155.7 1527.9 189.8 1574.6 143.2 1832.5 143.2 1832.5 161.7 1790.3 204 1709.4 204 1687.7 225.8 1613 225.8"/><polygon class="cls-3" points="1613 225.8 1652 186.7 1733 186.7 1759.3 160.4 1644.1 160.4 1600.6 204 1510.7 204 1510.7 98.4 1552.8 56.2 1868.3 56.2 1807.6 117 1566.6 117 1527.9 155.7 1527.9 189.8 1574.6 143.2 1832.5 143.2 1832.5 161.7 1790.3 204 1709.4 204 1687.7 225.8 1613 225.8"/></g><g><polygon class="cls-3" points="2036.7 225.4 1993.6 182.2 1944.1 182.2 1922.4 204 1844.6 204 1844.6 98.4 1886.8 56.2 1961.3 56.2 1861.8 155.7 1861.8 189.8 1908.6 143.2 2110.4 143.2 2136.7 117 2067 117 2149.5 34.4 2224.1 34.4 2166.5 92 2166.5 161.7 2124.7 203.7 2089.6 203.7 2111.3 225.4 2036.7 225.4"/><polygon class="cls-3" points="2036.7 225.4 1993.6 182.2 1944.1 182.2 1922.4 204 1844.6 204 1844.6 98.4 1886.8 56.2 1961.3 56.2 1861.8 155.7 1861.8 189.8 1908.6 143.2 2110.4 143.2 2136.7 117 2067 117 2149.5 34.4 2224.1 34.4 2166.5 92 2166.5 161.7 2124.7 203.7 2089.6 203.7 2111.3 225.4 2036.7 225.4"/></g></g><g><g><polygon class="cls-5" points="28.4 247 132.7 142.6 334.6 142.6 360.8 116.4 124.7 116.4 68.8 172.3 68.8 97.8 110.9 55.6 423.9 55.6 390.6 88.9 390.6 161.1 348.3 203.4 146.5 203.4 102.9 247 28.4 247"/><polygon class="cls-5" points="28.4 247 132.7 142.6 334.6 142.6 360.8 116.4 124.7 116.4 68.8 172.3 68.8 97.8 110.9 55.6 423.9 55.6 390.6 88.9 390.6 161.1 348.3 203.4 146.5 203.4 102.9 247 28.4 247"/></g><g><polygon class="cls-5" points="594 224.6 550.1 180.7 527.5 203.4 409.4 203.4 470.2 142.6 672 142.6 698.3 116.4 462.2 116.4 406.2 172.3 406.2 97.8 448.4 55.6 763.9 55.6 728.1 91.4 728.1 161.1 685.8 203.4 647.4 203.4 668.6 224.6 594 224.6"/><polygon class="cls-5" points="594 224.6 550.1 180.7 527.5 203.4 409.4 203.4 470.2 142.6 672 142.6 698.3 116.4 462.2 116.4 406.2 172.3 406.2 97.8 448.4 55.6 763.9 55.6 728.1 91.4 728.1 161.1 685.8 203.4 647.4 203.4 668.6 224.6 594 224.6"/></g><g><polygon class="cls-5" points="743.7 203.4 743.7 101.4 789.6 55.6 864.2 55.6 828.4 91.4 828.4 203.4 743.7 203.4"/><polygon class="cls-5" points="743.7 203.4 743.7 101.4 789.6 55.6 864.2 55.6 828.4 91.4 828.4 203.4 743.7 203.4"/></g><g><polygon class="cls-5" points="847.1 203.4 907.9 142.6 1109.8 142.6 1136 116.4 899.9 116.4 844 172.4 844 97.8 886.1 55.6 1127.1 55.6 1170.7 12 1245.2 12 1165.8 91.4 1165.8 161.1 1123.6 203.4 847.1 203.4"/><polygon class="cls-5" points="847.1 203.4 907.9 142.6 1109.8 142.6 1136 116.4 899.9 116.4 844 172.4 844 97.8 886.1 55.6 1127.1 55.6 1170.7 12 1245.2 12 1165.8 91.4 1165.8 161.1 1123.6 203.4 847.1 203.4"/></g><g><path class="cls-5" d="M1365,203.4l-22.7-22.7-22.7,22.7h-135l60.8-60.8h193.9l60.9,60.8h-135.2ZM1447.2,116.4h-209.9l-55.9,56v-74.7l42.1-42.1h315.5l-35.8,35.8v81l-56-56h0Z"/><path class="cls-5" d="M1365,203.4l-22.7-22.7-22.7,22.7h-135l60.8-60.8h193.9l60.9,60.8h-135.2ZM1447.2,116.4h-209.9l-55.9,56v-74.7l42.1-42.1h315.5l-35.8,35.8v81l-56-56h0Z"/></g><g><polygon class="cls-5" points="1621.1 225.2 1660.1 186.1 1741.1 186.1 1767.4 159.8 1652.3 159.8 1608.7 203.4 1518.8 203.4 1518.8 97.8 1560.9 55.6 1876.5 55.6 1815.7 116.4 1574.7 116.4 1536 155.1 1536 189.2 1582.7 142.6 1840.6 142.6 1840.6 161.1 1798.4 203.4 1717.5 203.4 1695.8 225.2 1621.1 225.2"/><polygon class="cls-5" points="1621.1 225.2 1660.1 186.1 1741.1 186.1 1767.4 159.8 1652.3 159.8 1608.7 203.4 1518.8 203.4 1518.8 97.8 1560.9 55.6 1876.5 55.6 1815.7 116.4 1574.7 116.4 1536 155.1 1536 189.2 1582.7 142.6 1840.6 142.6 1840.6 161.1 1798.4 203.4 1717.5 203.4 1695.8 225.2 1621.1 225.2"/></g><g><polygon class="cls-5" points="2048.3 224.8 2005.2 181.6 1955.8 181.6 1934 203.4 1856.3 203.4 1856.3 97.8 1898.4 55.6 1973 55.6 1873.5 155.1 1873.5 189.2 1920.2 142.6 2122 142.6 2148.3 116.4 2078.6 116.4 2161.1 33.8 2235.7 33.8 2178.1 91.4 2178.1 161.1 2136.3 203.1 2101.2 203.1 2122.9 224.8 2048.3 224.8"/><polygon class="cls-5" points="2048.3 224.8 2005.2 181.6 1955.8 181.6 1934 203.4 1856.3 203.4 1856.3 97.8 1898.4 55.6 1973 55.6 1873.5 155.1 1873.5 189.2 1920.2 142.6 2122 142.6 2148.3 116.4 2078.6 116.4 2161.1 33.8 2235.7 33.8 2178.1 91.4 2178.1 161.1 2136.3 203.1 2101.2 203.1 2122.9 224.8 2048.3 224.8"/></g></g></g><g><g><path class="cls-4" d="M24.2,250.5h80.9l43.5-43.6h202l43.5-43.5v-72.3l36.4-36.4H111.2h319.3l-36.5,36.5v72.3l-43.5,43.5h-202l-43.5,43.6H24.2ZM67.7,98.2l20.8-20.8-20.8,20.9v80.8l26-26-26,26v-80.9ZM133,141.7h201.8-201.8,0ZM356.6,119.9H126.9h229.8l-8.9,8.8s8.8-8.8,8.8-8.8Z"/><path class="cls-4" d="M594.3,228.2h80.9l-21.2-21.2h34l43.5-43.5v-69.7,69.8l-43.5,43.5h-34l21.2,21.2h-80.9ZM405.2,207h124.3l21.8-21.8,21.8,21.8-21.8-21.7-21.7,21.7h-124.4,0ZM405.2,98.2l43.5-43.5h321.8-321.7l-43.5,43.5v80.8l59.1-59.1h229.8l-21.8,21.8h-201.9,201.9l21.8-21.8h-229.7l-59.2,59.2v-80.9h0Z"/><polygon class="cls-4" points="742.6 207 742.6 101.9 789.8 54.7 870.8 54.7 789.9 54.7 742.7 101.9 742.7 207 831.8 207 831.8 93.7 831.8 93.7 831.8 207 742.6 207"/><path class="cls-4" d="M843,207h282.7l43.5-43.5v-69.7,69.8l-43.5,43.5h-282.8.1ZM843,98.2l43.5-43.5h240.9-240.8l-43.5,43.5v80.8l59.1-59.1h229.8l-21.8,21.8h-201.9,201.9l21.8-21.8h-229.7l-59.2,59.2v-80.9h0ZM1170.9,11.1h80.9-80.9l-20,20,19.9-20h0Z"/><path class="cls-4" d="M1365.2,207l-21.7-21.7-21.7,21.7h-141.4,141.3l21.8-21.8,21.8,21.8h141.4l-65.2-65.2h-195.7,195.8l65.2,65.2h-141.6ZM1476.3,148.7l30.4,30.4v-85.3h0v85.4l-30.4-30.4h0ZM1180.4,98.2l43.5-43.5h321.8-321.7l-43.5,43.5v80.8l59.1-59.1h207.9-207.9l-59.2,59.2v-80.9Z"/><path class="cls-4" d="M1617,228.7h80.9-80.9ZM1719.7,207h80.8-80.8ZM1517.8,207v-108.8,108.8h93-93ZM1660.4,185.2h80.9-80.9ZM1539.4,157.4v27.8-27.8ZM1654.4,163.4h108.7-108.7ZM1844.1,141.7h-261,261v21.6h0v-21.6ZM1576.9,119.9h240.9-240.9ZM1561.3,54.7h321.8-321.8Z"/><path class="cls-4" d="M2048.6,228.4l-43.2-43.2h-47.5,47.5l43.2,43.2h80.8l-21.8-21.8h30.6l43.2-43.2v-69.7h0v69.8l-43.2,43.2h-30.6l21.8,21.8h-80.9,0ZM1855.2,207v-108.8l43.5-43.5h80.9l-102.7,102.6v27.9l23.5-23.4-23.5,23.5v-28l102.7-102.6h-80.8l-43.5,43.5v108.7h80.8-80.9ZM1920.5,141.7h201.9l21.8-21.8h-69.8l87-87h80.9l-31.6,31.6,31.6-31.6h-80.8l-87,87h69.8l-21.8,21.8h-202Z"/></g><g><path class="cls-2" d="M29.2,238h80.9l43.5-43.6h202l43.5-43.5v-72.3l36.4-36.4H116.2h319.3l-36.5,36.5v72.3l-43.5,43.5h-202l-43.5,43.6H29.2ZM72.7,85.7l20.8-20.8-20.8,20.9v80.8l26-26-26,26v-80.9ZM138,129.2h201.8-201.8,0ZM361.7,107.4h-229.8,229.8l-8.9,8.8,8.8-8.8h.1Z"/><path class="cls-2" d="M599.4,215.7h80.9l-21.2-21.2h34l43.5-43.5v-69.7,69.8l-43.5,43.5h-34l21.2,21.2h-80.9ZM410.2,194.4h124.3l21.8-21.8,21.8,21.8-21.8-21.7-21.7,21.7h-124.4,0ZM410.2,85.7l43.5-43.5h321.8-321.7l-43.5,43.5v80.8l59.1-59.1h229.8l-21.8,21.8h-201.9,201.9l21.8-21.8h-229.7l-59.2,59.2v-80.9h0Z"/><polygon class="cls-2" points="747.7 194.4 747.7 89.3 794.8 42.2 875.8 42.2 794.9 42.2 747.7 89.4 747.7 194.4 836.8 194.4 836.8 81.2 836.8 81.2 836.8 194.4 747.7 194.4"/><path class="cls-2" d="M848,194.4h282.7l43.5-43.5v-69.7,69.8l-43.5,43.5h-282.8.1ZM848,85.7l43.5-43.5h240.9-240.8l-43.5,43.5v80.8l59.1-59.1h229.8l-21.8,21.8h-201.9,201.9l21.8-21.8h-229.7l-59.2,59.2v-80.9h0ZM1175.9-1.4h80.9-80.9l-20,20,19.9-20h0Z"/><path class="cls-2" d="M1370.2,194.4l-21.7-21.7-21.7,21.7h-141.4,141.3l21.8-21.8,21.8,21.8h141.4l-65.2-65.2h-195.7,195.8l65.2,65.2h-141.6ZM1481.3,136.1l30.4,30.4v-85.3h0v85.4l-30.4-30.4h0ZM1185.4,85.7l43.5-43.5h321.8-321.7l-43.5,43.5v80.8l59.1-59.1h207.9-207.9l-59.2,59.2v-80.9Z"/><path class="cls-2" d="M1622,216.2h80.9-80.9ZM1724.7,194.4h80.8-80.8ZM1522.8,194.4v-108.8,108.8h93-93ZM1665.5,172.6h80.9-80.9ZM1544.5,144.9v27.8-27.8ZM1659.4,150.9h108.7-108.7ZM1849.1,129.2h-261,261v21.6h0v-21.6ZM1581.9,107.4h240.9-240.9ZM1566.3,42.2h321.8-321.8Z"/><path class="cls-2" d="M2053.6,215.9l-43.2-43.2h-47.5,47.5l43.2,43.2h80.8l-21.8-21.8h30.6l43.2-43.2v-69.7h0v69.8l-43.2,43.2h-30.6l21.8,21.8h-80.9,0ZM1860.2,194.4v-108.8l43.5-43.5h80.9l-102.7,102.6v27.9l23.5-23.4-23.5,23.5v-28l102.7-102.6h-80.8l-43.5,43.5v108.7h80.8-80.9ZM1925.5,129.2h201.9l21.8-21.8h-69.8l87-87h80.9l-31.6,31.6,31.6-31.6h-80.8l-87,87h69.8l-21.8,21.8h-202Z"/></g><g><path class="cls-3" d="M24.2,243h80.9l43.5-43.6h202l43.5-43.5v-72.3l36.4-36.4H111.2h319.3l-36.5,36.5v72.3l-43.5,43.5h-202l-43.5,43.6H24.2ZM67.7,90.7l20.8-20.8-20.8,20.9v80.8l26-26-26,26v-80.9ZM133,134.2h201.8-201.8,0ZM356.6,112.4H126.9h229.8l-8.9,8.8,8.8-8.8Z"/><path class="cls-3" d="M594.3,220.7h80.9l-21.2-21.2h34l43.5-43.5v-69.7,69.8l-43.5,43.5h-34l21.2,21.2h-80.9ZM405.2,199.4h124.3l21.8-21.8,21.8,21.8-21.8-21.7-21.7,21.7h-124.4,0ZM405.2,90.7l43.5-43.5h321.8-321.7l-43.5,43.5v80.8l59.1-59.1h229.8l-21.8,21.8h-201.9,201.9l21.8-21.8h-229.7l-59.2,59.2v-80.9h0Z"/><polygon class="cls-3" points="742.6 199.4 742.6 94.4 789.8 47.2 870.8 47.2 789.9 47.2 742.7 94.4 742.7 199.4 831.8 199.4 831.8 86.2 831.8 86.2 831.8 199.4 742.6 199.4"/><path class="cls-3" d="M843,199.4h282.7l43.5-43.5v-69.7,69.8l-43.5,43.5h-282.8.1ZM843,90.7l43.5-43.5h240.9-240.8l-43.5,43.5v80.8l59.1-59.1h229.8l-21.8,21.8h-201.9,201.9l21.8-21.8h-229.7l-59.2,59.2v-80.9h0ZM1170.9,3.6h80.9-80.9l-20,20,19.9-20h0Z"/><path class="cls-3" d="M1365.2,199.4l-21.7-21.7-21.7,21.7h-141.4,141.3l21.8-21.8,21.8,21.8h141.4l-65.2-65.2h-195.7,195.8l65.2,65.2h-141.6ZM1476.3,141.2l30.4,30.4v-85.3h0v85.4l-30.4-30.4h0ZM1180.4,90.7l43.5-43.5h321.8-321.7l-43.5,43.5v80.8l59.1-59.1h207.9-207.9l-59.2,59.2v-80.9Z"/><path class="cls-3" d="M1617,221.2h80.9-80.9ZM1719.7,199.4h80.8-80.8ZM1517.8,199.4v-108.8,108.8h93-93ZM1660.4,177.7h80.9-80.9ZM1539.4,149.9v27.8-27.8ZM1654.4,155.9h108.7-108.7ZM1844.1,134.2h-261,261v21.6h0v-21.6ZM1576.9,112.4h240.9-240.9ZM1561.3,47.2h321.8-321.8Z"/><path class="cls-3" d="M2048.6,220.9l-43.2-43.2h-47.5,47.5l43.2,43.2h80.8l-21.8-21.8h30.6l43.2-43.2v-69.7h0v69.8l-43.2,43.2h-30.6l21.8,21.8h-80.9,0ZM1855.2,199.4v-108.8l43.5-43.5h80.9l-102.7,102.6v27.9l23.5-23.4-23.5,23.5v-28l102.7-102.6h-80.8l-43.5,43.5v108.7h80.8-80.9ZM1920.5,134.2h201.9l21.8-21.8h-69.8l87-87h80.9l-31.6,31.6,31.6-31.6h-80.8l-87,87h69.8l-21.8,21.8h-202Z"/></g><g><path class="cls-5" d="M12.9,243h80.9l43.5-43.6h202l43.5-43.5v-72.3l36.4-36.4H99.9h319.3l-36.5,36.5v72.3l-43.5,43.5h-202l-43.5,43.6H12.9ZM56.5,90.7l20.8-20.8-20.8,20.9v80.8l26-26-26,26v-80.9ZM121.7,134.2h201.8H121.7ZM345.4,112.4H115.6h229.8l-8.9,8.8,8.8-8.8h.1Z"/><path class="cls-5" d="M583.1,220.7h80.9l-21.2-21.2h34l43.5-43.5v-69.7,69.8l-43.5,43.5h-34l21.2,21.2h-80.9ZM393.9,199.4h124.3l21.8-21.8,21.8,21.8-21.8-21.7-21.7,21.7h-124.4ZM393.9,90.7l43.5-43.5h321.8-321.7l-43.5,43.5v80.8l59.1-59.1h229.8l-21.8,21.8h-201.9,201.9l21.8-21.8h-229.7l-59.2,59.2v-80.9h0Z"/><polygon class="cls-5" points="731.4 199.4 731.4 94.4 778.5 47.2 859.5 47.2 778.6 47.2 731.4 94.4 731.4 199.4 820.5 199.4 820.5 86.2 820.5 86.2 820.5 199.4 731.4 199.4"/><path class="cls-5" d="M831.7,199.4h282.7l43.5-43.5v-69.7,69.8l-43.5,43.5h-282.8,0ZM831.7,90.7l43.5-43.5h240.9-240.8l-43.5,43.5v80.8l59.1-59.1h229.8l-21.8,21.8h-201.9,201.9l21.8-21.8h-229.7l-59.2,59.2v-80.9h0ZM1159.6,3.6h80.9-80.9l-20,20,19.9-20h0Z"/><path class="cls-5" d="M1353.9,199.4l-21.7-21.7-21.7,21.7h-141.4,141.3l21.8-21.8,21.8,21.8h141.4l-65.2-65.2h-195.7,195.8l65.2,65.2h-141.6ZM1465,141.2l30.4,30.4v-85.3h0v85.4l-30.4-30.4h0ZM1169.1,90.7l43.5-43.5h321.8-321.7l-43.5,43.5v80.8l59.1-59.1h207.9-207.9l-59.2,59.2v-80.9Z"/><path class="cls-5" d="M1605.7,221.2h80.9-80.9ZM1708.4,199.4h80.8-80.8ZM1506.5,199.4v-108.8,108.8h93-93ZM1649.2,177.7h80.9-80.9ZM1528.2,149.9v27.8-27.8ZM1643.1,155.9h108.7-108.7ZM1832.8,134.2h-261,261v21.6h0v-21.6ZM1565.6,112.4h240.9-240.9ZM1550,47.2h321.8-321.8Z"/><path class="cls-5" d="M2037.3,220.9l-43.2-43.2h-47.5,47.5l43.2,43.2h80.8l-21.8-21.8h30.6l43.2-43.2v-69.7h0v69.8l-43.2,43.2h-30.6l21.8,21.8h-80.9,0ZM1843.9,199.4v-108.8l43.5-43.5h80.9l-102.7,102.6v27.9l23.5-23.4-23.5,23.5v-28l102.7-102.6h-80.8l-43.5,43.5v108.7h80.8-80.9ZM1909.2,134.2h201.9l21.8-21.8h-69.8l87-87h80.9l-31.6,31.6,31.6-31.6h-80.8l-87,87h69.8l-21.8,21.8h-202Z"/></g></g></svg>